<svg width="1430" height="545" viewBox="0 0 1430 545" fill="none" xmlns="http://www.w3.org/2000/svg">
<path d="M56.5742 315.64C73.1942 325.49 91.4842 327.76 109.174 329.95L109.644 330.01L116.214 331.04C122.704 332.06 129.194 333.08 135.674 334.15C136.324 334.26 136.924 334.31 137.504 334.31C140.814 334.31 143.534 332.51 144.774 329.5C145.574 327.55 146.204 327.55 146.944 327.55C147.634 327.55 148.524 327.71 149.574 328.02C150.914 328.42 152.164 328.57 153.274 328.7C153.634 328.74 153.994 328.78 154.354 328.84L168.074 330.91C190.864 334.35 213.654 337.79 236.454 341.21C236.614 341.23 236.774 341.27 236.934 341.31C237.544 341.44 238.384 341.61 239.354 341.61C240.704 341.61 245.204 341.16 246.514 335.34C250.304 318.64 241.534 296.32 227.364 286.59C222.244 283.08 216.254 280.89 208.504 279.7C192.454 277.25 176.124 274.94 160.334 272.71C154.374 271.87 148.404 271.02 142.444 270.17L142.224 270.14C140.394 269.88 138.574 269.61 136.744 269.34C132.574 268.72 128.274 268.09 123.994 267.55C119.344 266.97 115.124 265.94 111.094 264.41C94.8942 258.25 82.2842 245.69 76.5142 229.96C70.7242 214.17 72.1542 197.09 80.5442 181.87C96.3742 153.15 121.574 138.58 155.434 138.58C155.964 138.58 157.224 138.59 157.224 138.59C160.964 138.59 163.644 137.16 165.644 134.11C166.884 132.23 168.154 130.37 169.434 128.51C170.904 126.37 172.374 124.23 173.794 122.05C177.774 115.92 182.004 109.77 186.094 103.82C192.404 94.6398 198.924 85.1498 204.814 75.3598C205.544 74.1498 207.244 71.3298 205.834 68.1698C204.424 65.0098 201.054 64.3698 199.954 64.1598C186.404 61.5898 174.274 60.3398 162.884 60.3398C159.834 60.3398 156.774 60.4298 153.804 60.6098C131.344 61.9698 109.304 67.9998 88.3142 78.5198C45.8442 99.8098 17.9242 132.58 5.33423 175.92C-3.65577 206.88 -1.27577 237.45 12.4242 266.77C22.1542 287.6 37.0142 304.04 56.5742 315.64Z" fill="#F5F5F5"/>
<path d="M299.374 238.3C277.484 213.42 248.524 208.41 223.004 206.85C218.354 205.82 213.674 205.16 209.144 204.53C204.764 203.92 200.614 203.34 196.514 202.45C195.054 202.13 193.724 201.98 192.464 201.98C188.784 201.98 183.774 203.38 180.814 210.07C180.814 210.08 180.804 210.08 180.804 210.09C180.644 210.08 180.414 210.06 180.114 210.02C158.574 206.67 136.664 203.38 115.474 200.21L96.9138 197.43C94.0638 197 92.0038 196.69 90.2638 196.69C89.2638 196.69 86.2338 196.69 84.0238 199.13C81.5038 201.91 81.8438 205.41 82.4138 211.22C84.6038 233.64 99.6338 251.01 119.814 254.44C136.794 257.32 154.104 259.83 170.834 262.25C175.504 262.93 180.184 263.61 184.854 264.3L193.624 265.58L196.134 265.96V265.95L197.454 266.14C200.944 266.65 204.424 267.17 207.914 267.66C231.654 271 249.974 287.89 254.574 310.68C257.904 327.17 254.424 343.3 244.244 358.62C227.004 384.57 201.864 398.11 169.514 398.85C165.074 398.95 161.904 400.69 159.534 404.33C153.254 413.95 146.944 423.55 140.634 433.15L131.554 446.96C129.334 450.34 127.124 453.74 124.884 457.18L117.344 468.74L125.314 470.01C137.284 471.92 151.204 473.96 165.044 473.96C169.924 473.96 174.694 473.7 179.204 473.2C235.294 466.95 278.794 439.64 308.484 392.04C325.244 365.16 331.854 335.44 328.124 303.69C325.194 278.65 315.514 256.65 299.374 238.3Z" fill="#F5F5F5"/>
<path d="M147.855 399.82C146.245 396.33 142.335 395.9 140.855 395.74C127.635 394.28 115.385 390.16 104.435 383.49C85.0646 371.69 71.8446 356.63 64.0146 337.47C62.5946 334 59.3046 331.75 55.6246 331.75C53.4246 331.75 51.2646 332.57 49.5546 334.05C48.7346 334.76 47.9246 335.49 47.1146 336.22C45.7846 337.42 44.5246 338.54 43.2346 339.59C39.6646 342.48 36.0746 345.35 32.4846 348.22C23.3146 355.56 13.8246 363.15 4.69465 370.93C0.104647 374.85 1.10464 379.01 2.75464 381.82C22.1046 414.68 46.6246 438.37 77.6846 454.19C71.3946 470.38 65.1246 486.83 59.0446 502.77L52.2646 520.54C50.6546 524.74 49.0246 528.94 47.3946 533.13L45.1746 538.86L53.8646 544.35C62.2046 535.53 68.9046 525.74 74.5246 517.25C84.2946 502.51 94.0647 487.44 103.525 472.86C117.415 451.44 131.785 429.3 146.355 407.84C147.285 406.48 149.455 403.28 147.855 399.82Z" fill="#F5F5F5"/>
<path d="M172.395 141.05L180.685 142.31C183.315 142.71 185.805 143 188.205 143.28C193.005 143.84 197.145 144.32 200.995 145.48C228.525 153.82 248.415 170.77 260.105 195.86C262.195 200.34 267.465 203.35 273.225 203.35C276.485 203.35 279.475 202.33 281.665 200.48C290.545 192.97 299.025 184.87 307.235 177.04C311.545 172.93 315.995 168.68 320.435 164.58C322.625 162.56 324.605 159.09 321.605 154.08L321.495 153.89C314.465 142.05 307.475 132.13 300.125 123.56C285.105 106.06 266.615 91.71 243.615 79.71C249.085 66.85 254.445 53.74 259.635 41.06L263.345 32.01C265.485 26.79 267.585 21.56 269.695 16.32L274.265 4.99L270.215 2.74L265.285 0L262.555 3.76C245.795 26.88 230.345 51.46 215.415 75.22C203.205 94.65 190.575 114.74 177.175 134.14L172.395 141.05Z" fill="#F5F5F5"/>
<path d="M158.085 193.68C161.335 194.16 164.585 194.65 167.825 195.19C168.525 195.31 169.165 195.37 169.785 195.37C172.675 195.37 175.105 194.07 176.825 191.6C182.995 182.71 188.475 174.95 193.575 167.88C194.255 166.94 196.325 164.07 194.905 160.74C193.495 157.43 190.015 156.94 188.705 156.75C181.445 155.72 171.875 154.34 162.195 152.76C161.565 152.66 160.955 152.61 160.375 152.61C157.315 152.61 154.745 154.01 152.755 156.78C146.655 165.27 141.195 172.74 136.055 179.61C134.115 182.21 133.615 184.7 134.585 186.99C136.045 190.43 139.675 190.9 141.045 191.08C143.705 191.42 146.425 191.84 149.075 192.25L149.065 192.32L158.085 193.68Z" fill="#F5F5F5"/>
<path d="M186.094 346.94C178.134 345.82 170.034 344.58 162.214 343.38L158.814 342.86C158.284 342.78 157.774 342.74 157.284 342.74C154.684 342.74 152.404 343.91 150.864 346.05C146.144 352.58 141.404 359.11 136.444 365.95L126.704 379.37L166.064 385.34C166.504 385.41 166.924 385.44 167.324 385.44C171.484 385.44 173.614 382.38 174.514 381.08L181.334 371.32C184.444 366.87 187.554 362.42 190.664 357.98C191.404 356.92 193.374 354.12 191.954 350.86C191.014 348.67 189.044 347.36 186.094 346.94Z" fill="#F5F5F5"/>
<path d="M534.865 407.12C533.345 403.13 529.455 400.45 525.185 400.45C523.405 400.45 521.645 400.92 520.085 401.8C513.965 405.27 506.715 407.04 498.545 407.04C490.375 407.04 484.195 404.76 479.625 400.06C475.015 395.33 472.785 388.58 472.785 379.42L472.685 283.33H524.405C530.125 283.33 534.785 278.67 534.785 272.95V227.71C534.785 221.99 530.125 217.33 524.405 217.33L472.785 217.43V167.1C472.785 161.38 468.125 156.72 462.405 156.72H400.505C394.785 156.72 390.125 161.38 390.125 167.1L390.225 217.33H362.105C356.385 217.33 351.725 221.99 351.725 227.71V272.95C351.725 278.67 356.385 283.33 362.105 283.33L390.125 283.23V380.34C390.125 411.35 398.945 435.15 416.345 451.06C433.605 466.86 457.835 474.87 488.355 474.87C499.805 474.87 511.055 473.49 521.805 470.78C530.975 468.45 539.195 465.08 546.235 460.76C550.515 458.13 552.325 452.84 550.535 448.17L534.865 407.12Z" fill="#F5F5F5"/>
<path d="M768.674 225.11C747.324 213.81 722.844 208.08 695.894 208.08C668.624 208.08 644.064 213.81 622.864 225.12C601.614 236.46 584.604 252.35 572.294 272.33C559.954 292.36 553.704 315.62 553.704 341.47C553.704 367.02 559.964 390.13 572.294 410.15C584.594 430.13 601.604 446.09 622.844 457.58C644.034 469.05 668.614 474.87 695.894 474.87C722.864 474.87 747.354 469.06 768.704 457.59C790.104 446.09 807.114 430.12 819.284 410.13C831.454 390.11 837.624 367.02 837.624 341.48C837.624 315.33 831.454 292 819.274 272.12C807.104 252.27 790.084 236.46 768.674 225.11ZM746.344 375.78C741.284 385.19 734.324 392.52 725.654 397.56C716.944 402.62 706.934 405.18 695.894 405.18C684.854 405.18 674.844 402.62 666.134 397.56C657.444 392.52 650.394 385.17 645.184 375.73C639.934 366.24 637.274 354.71 637.274 341.48C637.274 327.95 639.924 316.36 645.164 307.03C650.374 297.73 657.434 290.45 666.134 285.4C674.834 280.34 684.844 277.78 695.894 277.78C706.924 277.78 716.944 280.34 725.654 285.4C734.334 290.44 741.304 297.7 746.364 306.98C751.464 316.33 754.054 327.94 754.054 341.49C754.044 354.73 751.454 366.27 746.344 375.78Z" fill="#F5F5F5"/>
<path d="M1009.97 208.26C1009.77 208.26 1009.56 208.26 1009.36 208.27C988.665 209.24 970.525 213.99 955.435 222.39C950.415 225.18 945.725 228.41 941.495 231.98C940.975 232.42 940.404 232.64 939.794 232.64C938.834 232.64 937.315 231.98 937.315 230.2V224.73C937.315 217.59 931.505 211.78 924.365 211.78H870.845C863.705 211.78 857.895 217.59 857.895 224.73V458.23C857.895 465.37 863.705 471.18 870.845 471.18H927.604C934.744 471.18 940.555 465.37 940.555 458.23V348.42C940.555 326.3 946.135 309.93 957.155 299.75C968.285 289.47 983.195 284.25 1001.48 284.25C1004.08 284.25 1006.62 284.32 1009.09 284.48C1009.37 284.5 1009.66 284.51 1009.94 284.51C1017.09 284.51 1022.91 278.7 1022.91 271.56V221.22C1022.9 214.07 1017.1 208.26 1009.97 208.26Z" fill="#F5F5F5"/>
<path d="M1428.18 149.74C1428.16 142.62 1422.35 136.83 1415.23 136.83H1365.78C1361.23 136.83 1356.97 139.26 1354.64 143.17L1242.07 332.97L1127.52 143.09C1125.19 139.23 1120.94 136.83 1116.43 136.83H1066.5C1059.36 136.83 1053.55 142.64 1053.55 149.78V458.24C1053.55 465.38 1059.36 471.19 1066.5 471.19H1121.4C1128.54 471.19 1134.35 465.38 1134.35 458.24V294.42L1217.24 430.71C1219.57 434.55 1223.81 436.93 1228.3 436.93H1253.36C1257.9 436.93 1262.16 434.51 1264.49 430.61L1347.91 290.51L1348.27 458.25C1348.29 465.37 1354.1 471.17 1361.22 471.17H1416.12C1419.59 471.17 1422.84 469.82 1425.29 467.37C1427.74 464.92 1429.08 461.66 1429.07 458.19L1428.18 149.74Z" fill="#F5F5F5"/>
</svg>
